<mxfile host="app.diagrams.net" modified="2024-04-02T10:11:28.340Z" agent="Mozilla/5.0 (Windows NT 10.0; Win64; x64) AppleWebKit/537.36 (KHTML, like Gecko) Chrome/123.0.0.0 Safari/537.36 Edg/123.0.0.0" etag="JyP4amyBpZpwLIFupJDg" version="24.2.1" type="device">
  <diagram name="Page-1" id="3mJgvuM-XM2IDPiN1FX9">
    <mxGraphModel dx="1386" dy="730" grid="1" gridSize="10" guides="1" tooltips="1" connect="1" arrows="1" fold="1" page="1" pageScale="1" pageWidth="850" pageHeight="1100" math="0" shadow="0">
      <root>
        <mxCell id="0" />
        <mxCell id="1" parent="0" />
        <mxCell id="3t1Na5gOEzCLoHh5FQOy-1" value="USER" style="rounded=0;whiteSpace=wrap;html=1;" parent="1" vertex="1">
          <mxGeometry x="200" y="40" width="120" height="60" as="geometry" />
        </mxCell>
        <mxCell id="3t1Na5gOEzCLoHh5FQOy-2" value="ADMINISTRATOR" style="rounded=0;whiteSpace=wrap;html=1;" parent="1" vertex="1">
          <mxGeometry x="50" y="140" width="120" height="60" as="geometry" />
        </mxCell>
        <mxCell id="3t1Na5gOEzCLoHh5FQOy-3" value="CONTENT CREATOR" style="rounded=0;whiteSpace=wrap;html=1;" parent="1" vertex="1">
          <mxGeometry x="200" y="140" width="120" height="60" as="geometry" />
        </mxCell>
        <mxCell id="3t1Na5gOEzCLoHh5FQOy-4" value="END USER" style="rounded=0;whiteSpace=wrap;html=1;" parent="1" vertex="1">
          <mxGeometry x="370" y="140" width="120" height="60" as="geometry" />
        </mxCell>
        <mxCell id="3t1Na5gOEzCLoHh5FQOy-5" value="TOKENIZER" style="rounded=0;whiteSpace=wrap;html=1;" parent="1" vertex="1">
          <mxGeometry x="370" y="485" width="120" height="60" as="geometry" />
        </mxCell>
        <mxCell id="3t1Na5gOEzCLoHh5FQOy-6" value="AuthController" style="rounded=0;whiteSpace=wrap;html=1;" parent="1" vertex="1">
          <mxGeometry x="210" y="485" width="120" height="60" as="geometry" />
        </mxCell>
        <mxCell id="3t1Na5gOEzCLoHh5FQOy-7" value="UserAccountRepository" style="rounded=0;whiteSpace=wrap;html=1;" parent="1" vertex="1">
          <mxGeometry x="190" y="330" width="160" height="70" as="geometry" />
        </mxCell>
        <mxCell id="3t1Na5gOEzCLoHh5FQOy-8" value="PasswordChecker" style="rounded=0;whiteSpace=wrap;html=1;" parent="1" vertex="1">
          <mxGeometry x="30" y="480" width="160" height="70" as="geometry" />
        </mxCell>
        <mxCell id="3t1Na5gOEzCLoHh5FQOy-10" value="token authorization" style="ellipse;whiteSpace=wrap;html=1;" parent="1" vertex="1">
          <mxGeometry x="600" y="130" width="120" height="80" as="geometry" />
        </mxCell>
        <mxCell id="3t1Na5gOEzCLoHh5FQOy-11" value="Password check" style="ellipse;whiteSpace=wrap;html=1;" parent="1" vertex="1">
          <mxGeometry x="600" y="230" width="120" height="80" as="geometry" />
        </mxCell>
        <mxCell id="3t1Na5gOEzCLoHh5FQOy-12" value="Check session" style="ellipse;whiteSpace=wrap;html=1;" parent="1" vertex="1">
          <mxGeometry x="600" y="325" width="120" height="80" as="geometry" />
        </mxCell>
        <mxCell id="3t1Na5gOEzCLoHh5FQOy-13" value="MFA ??" style="ellipse;whiteSpace=wrap;html=1;" parent="1" vertex="1">
          <mxGeometry x="600" y="420" width="120" height="80" as="geometry" />
        </mxCell>
      </root>
    </mxGraphModel>
  </diagram>
</mxfile>
